<svg width="151" height="25" viewBox="0 0 151 25" fill="none" xmlns="http://www.w3.org/2000/svg">
<g clip-path="url(#clip0_91_1613)">
<path d="M3.88628 10.8682C4.14252 14.5708 4.3591 18.8567 4.53603 23.7259C4.41706 24.3399 3.94729 24.6469 3.12062 24.6469C2.90404 24.6469 2.68136 24.6009 2.45563 24.5149C2.22989 24.4259 2.08652 24.3031 2.02856 24.1434V10.8713H3.88628V10.8682Z" fill="black"/>
<path d="M19.4038 18.3194C19.4038 15.9646 19.2757 14.2331 19.0195 13.1217C19.175 12.8239 18.9402 12.6765 18.3118 12.6765C17.6437 12.6765 16.7774 12.8454 15.7158 13.18C14.6543 13.5177 13.788 13.8524 13.1199 14.1901C11.5276 14.9607 10.6399 15.716 10.463 16.4466V24.5241H8.48628C8.23005 23.8518 8.10193 21.9606 8.10193 18.8536C8.10193 16.0813 8.15684 14.0427 8.2636 12.7379C8.37037 11.4301 8.45578 10.6902 8.51374 10.5121C9.02621 10.1744 9.43802 10.0086 9.75222 10.0086C10.2433 10.0086 10.4904 10.5919 10.4904 11.7616C10.4904 12.216 10.466 12.6581 10.4172 13.0818C10.3684 13.5085 10.344 13.8002 10.344 13.9568C13.5287 11.602 15.9995 10.4231 17.7505 10.4231C19.7363 10.4231 20.868 12.0379 21.1426 15.2616C21.2615 16.3914 21.3195 17.9541 21.3195 19.9527L21.289 22.2983C21.289 23.1702 21.3073 24.0114 21.347 24.8219C21.1487 24.9417 20.9931 25 20.8741 25C20.8162 24.9816 20.6881 24.9509 20.4898 24.911C20.2915 24.8711 20.0383 24.8404 19.7241 24.8219C19.5258 24.0298 19.4191 23.2224 19.4008 22.4027C19.3794 21.5799 19.3703 20.8246 19.3703 20.1308L19.4008 18.3194H19.4038Z" fill="black"/>
<path d="M27.4174 19.4185L27.5638 22.0005C27.5638 23.5847 27.1886 24.5426 26.4412 24.8803C26.2826 24.9386 26.0965 24.9693 25.8799 24.9693C25.6634 24.9693 25.4071 24.9202 25.1143 24.8219L25.1448 13.7173C25.1448 12.1147 25.0502 10.506 24.8641 8.89107C24.6781 7.27926 24.5835 5.67052 24.5835 4.06484C24.5835 3.4324 24.919 3.1131 25.5871 3.1131H25.822C25.9592 3.1131 26.0477 3.12231 26.0874 3.1438C26.3833 4.37185 26.5785 5.85472 26.6761 7.59855C26.8927 11.4577 27.0879 14.0519 27.2648 15.3782C27.6004 15.2002 28.3477 14.6967 29.5069 13.8647C30.6661 13.0327 31.6026 12.3665 32.3103 11.8599C33.018 11.3533 33.686 10.8836 34.3175 10.4507C35.7939 9.48054 36.7182 8.99546 37.0903 8.99546C37.4045 8.99546 37.6516 9.18273 37.8285 9.56036C36.8463 10.8068 35.2631 12.1945 33.079 13.7173C32.1944 14.3313 31.3128 14.9392 30.4373 15.544C29.5618 16.1488 28.7596 16.7751 28.0335 17.4291C29.3513 17.7852 30.599 18.1567 31.7795 18.5435C32.96 18.9304 34.1009 19.2804 35.2021 19.5966C37.7401 20.3488 39.9211 20.7755 41.7514 20.8738C41.7514 21.408 41.7026 21.7549 41.605 21.9115C41.428 22.1878 41.065 22.3474 40.5129 22.3873H40.278C39.0792 22.0496 37.4838 21.6751 35.498 21.2575C31.5843 20.447 28.8907 19.833 27.4143 19.4155L27.4174 19.4185Z" fill="black"/>
<path d="M47.3124 4.98895C48.7705 4.69115 50.1493 4.54992 51.4488 4.56834C52.7483 4.58676 53.9013 4.65123 54.9141 4.76176C55.9268 4.87535 56.9396 5.07491 57.9615 5.36657C60.1181 6.00823 61.442 6.85865 61.9423 7.9117C62.0765 8.13275 62.1436 8.39064 62.1375 8.68537C62.1253 9.55729 61.3566 10.4875 59.8283 11.4761C58.8156 12.1362 57.3727 12.7993 55.4937 13.4686C60.0724 13.7848 63.1716 14.5002 64.7884 15.6116C65.6852 16.198 66.1275 16.8765 66.1184 17.6471C66.1031 18.7155 65.3435 19.8146 63.8336 20.9413C62.1833 22.1479 60.0876 23.1395 57.5405 23.9162C55.1917 24.6377 53.0137 24.9846 51.0065 24.9601C49.4721 24.9386 48.1573 24.6961 47.0622 24.2263C47.0378 22.9584 47.0073 21.6536 46.9646 20.3058C46.8457 17.3155 46.7999 14.7949 46.8274 12.7471C46.8548 10.6994 46.9494 8.56564 47.1171 6.35208C46.9006 6.35208 46.7053 6.32138 46.5284 6.26919C46.3515 6.217 46.2661 6.02358 46.2691 5.68586C46.2752 5.21 46.623 4.97667 47.3093 4.98588L47.3124 4.98895ZM52.6903 6.5148L51.9521 6.50559C50.3384 6.4841 49.4324 6.64067 49.2311 6.97532L48.859 12.9406C50.6282 12.9651 52.7879 12.566 55.335 11.7494C56.9945 11.1967 58.2116 10.5796 58.9895 9.89807C59.386 9.54808 59.5904 9.18273 59.5935 8.80818C59.5965 8.43362 59.4592 8.12047 59.1786 7.86872C58.898 7.61697 58.535 7.41127 58.0957 7.24549C57.6564 7.08277 57.1653 6.95075 56.6254 6.85558C56.0855 6.76041 55.5608 6.68979 55.0483 6.64067C54.2613 6.57006 53.4773 6.53015 52.6903 6.52094V6.5148ZM49.7375 22.7803C52.9069 22.6452 55.5059 22.2983 57.5405 21.7395C59.5752 21.1838 61.0424 20.5667 61.9454 19.8975C62.8483 19.2251 63.3059 18.5742 63.312 17.9418C63.3242 17.1098 62.7415 16.4405 61.5671 15.9278C60.2951 15.3967 58.6021 15.1173 56.4881 15.0896C54.3742 15.062 51.9155 15.3168 49.1182 15.8541L49.7375 22.7803Z" fill="black"/>
<path d="M78.6373 22.7435C80.3669 22.7435 82.9751 21.9514 86.4556 20.3672C86.6722 20.3672 86.8491 20.4409 86.9864 20.5913C87.1237 20.7387 87.1938 20.9137 87.1938 21.1102C86.4068 22.4579 84.9029 23.5049 82.6792 24.257C80.4554 25.0092 78.3811 25.1382 76.4532 24.6439C74.2691 24.0698 72.9422 22.8325 72.4693 20.9321C72.4297 20.5575 72.4114 20.051 72.4114 19.4185C72.4114 18.7861 72.573 17.9479 72.8994 16.9102C73.2228 15.8725 73.778 14.887 74.565 13.9568C75.352 13.0265 76.2763 12.2928 77.3378 11.7586C78.3994 11.2244 79.5311 10.9573 80.7299 10.9573C81.9288 10.9573 83.1489 11.3533 84.5643 12.1454C85.2324 12.523 85.7632 12.9467 86.1567 13.4226C86.5502 13.8984 86.7454 14.3835 86.7454 14.8778C86.7454 15.016 86.7363 15.1541 86.7149 15.2923C86.6752 16.4988 86.0957 17.2633 84.9731 17.5795C84.482 17.7177 83.9116 17.7883 83.2618 17.7883L79.0125 17.6102C77.5971 17.6102 76.5142 17.9172 75.7669 18.5313C75.3337 18.869 75.0287 19.3725 74.8517 20.0448C75.3429 21.847 76.6027 22.7465 78.6282 22.7465L78.6373 22.7435ZM83.9024 13.5699C83.4601 13.2537 83.0025 13.0265 82.5297 12.8884C82.0569 12.7502 81.6634 12.6796 81.3492 12.6796C81.035 12.6796 80.5225 12.784 79.8148 12.9928C79.1071 13.2015 78.4757 13.4318 77.9266 13.6897C76.5691 14.3221 75.8919 14.9853 75.8919 15.6791C77.466 15.8173 78.6465 15.8879 79.4335 15.8879C81.6176 15.8879 83.091 15.7006 83.8597 15.323C84.3325 15.1265 84.5674 14.8778 84.5674 14.58C84.5674 14.2239 84.3447 13.8862 83.9024 13.5699Z" fill="black"/>
<path d="M100.469 18.3194C100.469 15.9646 100.341 14.2331 100.085 13.1217C100.241 12.8239 100.006 12.6765 99.3773 12.6765C98.7093 12.6765 97.8429 12.8454 96.7814 13.18C95.7198 13.5177 94.8535 13.8524 94.1855 14.1901C92.5931 14.9607 91.7054 15.716 91.5285 16.4466V24.5241H89.5518C89.2956 23.8518 89.1675 21.9606 89.1675 18.8536C89.1675 16.0813 89.2224 14.0427 89.3292 12.7379C89.4359 11.4301 89.5213 10.6902 89.5793 10.5121C90.0918 10.1744 90.5036 10.0086 90.8178 10.0086C91.3089 10.0086 91.556 10.5919 91.556 11.7616C91.556 12.216 91.5316 12.6581 91.4828 13.0818C91.434 13.5085 91.4096 13.8002 91.4096 13.9568C94.5942 11.602 97.0651 10.4231 98.816 10.4231C100.802 10.4231 101.934 12.0379 102.208 15.2616C102.327 16.3914 102.385 17.9541 102.385 19.9527L102.355 22.2983C102.355 23.1702 102.373 24.0114 102.413 24.8219C102.214 24.9417 102.059 25 101.94 25C101.882 24.9816 101.754 24.9509 101.555 24.911C101.357 24.8711 101.104 24.8404 100.79 24.8219C100.591 24.0298 100.485 23.2224 100.466 22.4027C100.445 21.5799 100.436 20.8246 100.436 20.1308L100.466 18.3194H100.469Z" fill="black"/>
<path d="M117.86 6.54857C117.753 8.35994 117.653 10.1314 117.564 11.8629C117.476 13.5945 117.43 15.4366 117.43 17.3861C117.43 19.3356 117.567 21.3987 117.842 23.5785C117.842 24.0329 117.756 24.3614 117.592 24.5579C117.424 24.7544 117.143 24.8557 116.75 24.8557C115.825 24.8557 115.362 24.0851 115.362 22.5408V21.5615C112.568 23.6584 110.21 24.7083 108.282 24.7083C107.516 24.7083 106.732 24.5211 105.936 24.1434C105.14 23.7689 104.386 23.0044 103.679 21.8562C103.581 21.3803 103.532 20.8952 103.532 20.401C103.532 19.9067 103.627 19.308 103.813 18.6049C103.999 17.9019 104.383 17.1743 104.963 16.4221C105.542 15.6699 106.247 15.0068 107.071 14.4326C108.88 13.2046 110.838 12.5906 112.943 12.5906C113.849 12.5906 114.712 12.7287 115.539 13.005C115.539 12.6489 115.563 12.0257 115.612 11.1353C115.661 10.245 115.716 9.30554 115.774 8.31389C115.893 5.74113 115.969 4.22142 116.008 3.75476C116.048 3.29117 116.103 2.89513 116.17 2.56662C116.24 2.24119 116.341 1.95874 116.481 1.71927C116.777 1.22498 117.287 0.976299 118.016 0.976299C118.016 2.8767 117.961 4.73106 117.854 6.54243L117.86 6.54857ZM105.689 20.1615C105.689 21.7242 106.25 22.5071 107.37 22.5071C107.546 22.5071 107.742 22.4886 107.958 22.4487C108.764 22.4487 109.758 22.2123 110.939 21.7365C113.181 20.8461 114.547 20.0725 115.038 19.4216V15.4734C115.038 14.7796 114.477 14.4357 113.358 14.4357C113.22 14.4173 113.037 14.405 112.812 14.405C112.586 14.405 112.235 14.4541 111.765 14.5524C111.292 14.6506 110.762 14.8287 110.173 15.0866C109.584 15.3445 109.002 15.6607 108.431 16.0383C107.232 16.8488 106.406 17.8006 105.954 18.8874C105.777 19.3019 105.689 19.7286 105.689 20.1646V20.1615Z" fill="black"/>
<path d="M125.575 22.7435C127.304 22.7435 129.912 21.9514 133.393 20.3672C133.609 20.3672 133.786 20.4409 133.924 20.5913C134.061 20.7387 134.131 20.9137 134.131 21.1102C133.344 22.4579 131.84 23.5049 129.616 24.257C127.393 25.0092 125.318 25.1382 123.39 24.6439C121.206 24.0698 119.879 22.8325 119.407 20.9321C119.367 20.5575 119.349 20.051 119.349 19.4185C119.349 18.7861 119.51 17.9479 119.837 16.9102C120.16 15.8725 120.715 14.887 121.502 13.9568C122.289 13.0265 123.214 12.2928 124.275 11.7586C125.337 11.2244 126.468 10.9573 127.667 10.9573C128.866 10.9573 130.086 11.3533 131.502 12.1454C132.17 12.523 132.7 12.9467 133.094 13.4226C133.487 13.8984 133.683 14.3835 133.683 14.8778C133.683 15.016 133.674 15.1541 133.652 15.2923C133.613 16.4988 133.033 17.2633 131.91 17.5795C131.419 17.7177 130.849 17.7883 130.199 17.7883L125.95 17.6102C124.534 17.6102 123.451 17.9172 122.704 18.5313C122.271 18.869 121.966 19.3725 121.789 20.0448C122.28 21.847 123.54 22.7465 125.565 22.7465L125.575 22.7435ZM130.84 13.5699C130.397 13.2537 129.94 13.0265 129.467 12.8884C128.994 12.7502 128.601 12.6796 128.286 12.6796C127.972 12.6796 127.46 12.784 126.752 12.9928C126.044 13.2015 125.413 13.4318 124.864 13.6897C123.506 14.3221 122.829 14.9853 122.829 15.6791C124.403 15.8173 125.584 15.8879 126.371 15.8879C128.555 15.8879 130.028 15.7006 130.797 15.323C131.27 15.1265 131.505 14.8778 131.505 14.58C131.505 14.2239 131.282 13.8862 130.84 13.5699Z" fill="black"/>
<path d="M0 5.17623C0 6.81874 1.65029 8.15117 2.95588 8.15117C4.26147 8.15117 5.91176 6.81874 5.91176 5.17623C5.91176 2.33943 3.28228 0 2.95588 0C2.62948 0 0 2.33943 0 5.17623Z" fill="black"/>
<path d="M67.3111 13.3827C67.1799 12.3357 67.0609 11.3994 66.9511 10.5766C66.8413 9.75378 66.762 9.14282 66.7193 8.74371C66.6735 8.34459 66.4295 7.38057 65.9841 5.85165C66.1367 5.60297 66.2892 5.3635 66.4325 5.13631C66.579 4.90912 66.8047 4.78018 67.1158 4.75255C67.793 4.69422 68.5648 7.51873 69.4311 13.2292C69.9131 16.5418 70.3005 19.8606 70.5903 23.1886C70.6696 24.0851 70.087 24.5855 68.8516 24.6961L68.6167 24.6868C68.5282 23.6737 68.3879 22.3812 68.1927 20.8124C67.9974 19.2405 67.8357 17.8712 67.7046 16.7076C67.5734 15.544 67.4422 14.4357 67.3141 13.3888L67.3111 13.3827Z" fill="black"/>
<path d="M150.857 16.0567C150.762 15.6546 150.622 15.2616 150.439 14.8901C150.393 14.798 150.344 14.7059 150.295 14.6169C150.243 14.5278 150.192 14.4419 150.134 14.3467L150.094 14.2853L150.057 14.23L149.969 14.1011C149.911 14.0182 149.85 13.9384 149.789 13.8585C149.292 13.223 148.679 12.6827 147.989 12.2651C147.3 11.8476 146.534 11.559 145.741 11.4178C144.948 11.2735 144.13 11.2766 143.337 11.427C143.267 11.4393 143.2 11.4608 143.13 11.4761C142.81 11.513 142.355 11.6388 141.669 11.9827C141.629 12.0011 141.592 12.0226 141.553 12.041C140.787 12.434 139.747 13.0879 138.301 14.1655C138.261 13.9875 138.216 13.6805 138.17 13.2445C138.121 12.8085 138.026 12.3695 137.889 11.9244C137.752 11.4792 137.566 11.0831 137.328 10.7362C137.093 10.3893 136.767 10.2174 136.355 10.2174C135.665 10.2174 135.324 10.4538 135.324 10.9296C135.443 11.8599 135.607 13.3151 135.824 15.2953C135.922 16.2072 136.025 17.1313 136.135 18.0707C136.242 19.0102 136.343 19.876 136.431 20.6681C136.52 21.4602 136.593 22.1325 136.654 22.6882C136.712 23.2439 136.751 23.5785 136.773 23.6983C136.928 24.1526 137.072 24.4597 137.2 24.6193C137.328 24.7759 137.48 24.8557 137.657 24.8557C137.834 24.8557 138.051 24.8158 138.307 24.736C138.563 24.6561 138.896 24.607 139.311 24.5886C139.311 23.6369 139.213 22.7035 139.015 21.7825C138.82 20.8615 138.719 20.1308 138.719 19.5843V18.5896C138.719 17.9172 138.874 17.2817 139.192 16.6892C139.427 16.2686 139.649 15.848 139.906 15.4396C140.061 15.2309 140.223 15.0221 140.394 14.8256C140.613 14.5708 140.845 14.3283 141.089 14.1072C141.333 13.8862 141.58 13.6927 141.849 13.5239C142.386 13.1831 142.986 12.9406 143.612 12.8147C144.237 12.6888 144.884 12.6796 145.515 12.784C146.147 12.8884 146.757 13.1094 147.312 13.4349C147.864 13.7603 148.355 14.187 148.758 14.6905C148.807 14.7519 148.856 14.8164 148.904 14.884L148.971 14.9761L149.011 15.0313C149.023 15.0497 149.035 15.0682 149.045 15.0835C149.081 15.1418 149.127 15.2094 149.164 15.2769C149.203 15.3445 149.24 15.4151 149.273 15.4826C149.414 15.762 149.52 16.0567 149.597 16.3607C149.743 16.9686 149.752 17.6133 149.618 18.2273C149.487 18.8413 149.215 19.4247 148.825 19.9189C148.633 20.1646 148.41 20.3917 148.166 20.5882C148.105 20.6374 148.041 20.6865 147.98 20.7325L147.956 20.751L147.934 20.7663L147.879 20.8031C147.849 20.8216 147.824 20.84 147.791 20.8615C147.663 20.9413 147.529 21.0119 147.391 21.0733C146.839 21.3159 146.217 21.3926 145.619 21.2974C145.021 21.2023 144.451 20.9321 143.999 20.5268C143.886 20.4255 143.78 20.315 143.682 20.1983C143.633 20.14 143.584 20.0786 143.542 20.0172L143.508 19.9711L143.475 19.922C143.45 19.8852 143.438 19.8698 143.42 19.833C143.267 19.5843 143.16 19.3111 143.105 19.0225C142.993 18.4514 143.09 17.8343 143.377 17.3278C143.52 17.0729 143.706 16.8427 143.932 16.6554C143.987 16.6094 144.045 16.5633 144.106 16.5203L144.155 16.4866L144.191 16.462C144.222 16.4436 144.249 16.4252 144.28 16.4098C144.399 16.3423 144.527 16.2901 144.658 16.2532C145.183 16.0997 145.781 16.201 146.229 16.5173C146.342 16.5971 146.446 16.6892 146.537 16.7905C146.629 16.8918 146.717 17.0115 146.772 17.1159C146.894 17.34 146.949 17.5949 146.934 17.8528C146.934 17.8681 146.879 18.4177 146.751 18.6418C146.674 18.7769 146.571 18.8997 146.455 19.0041C146.397 19.0532 146.333 19.1023 146.266 19.1422C146.241 19.1576 146.223 19.1668 146.205 19.176C146.186 19.1852 146.165 19.1944 146.147 19.2036C146.107 19.222 146.067 19.2374 146.025 19.2497C145.695 19.3602 145.326 19.3203 145.027 19.1453C144.878 19.0593 144.747 18.9365 144.649 18.7984C144.539 18.6448 144.466 18.4545 144.451 18.2611C144.432 18.0677 144.466 17.8712 144.548 17.6962C144.588 17.6102 144.64 17.5273 144.701 17.4536C144.78 17.3615 144.866 17.2694 144.981 17.2265C145.018 17.2142 145.055 17.205 145.091 17.1927C145.213 17.162 145.354 17.1681 145.473 17.2111C145.555 17.2418 145.637 17.3032 145.695 17.3677C145.784 17.469 145.875 17.6041 145.906 17.733C145.945 17.8988 145.86 18.0769 145.717 18.1598C145.543 18.2611 145.402 18.1199 145.323 17.9694C145.28 17.8896 145.253 17.7514 145.143 17.7392C145.055 17.73 144.948 17.8374 144.914 17.905C144.859 18.0124 144.859 18.1475 144.872 18.2672C144.893 18.4852 144.981 18.7063 145.158 18.8413C145.509 19.1115 146.04 18.9795 146.357 18.7216C146.726 18.4177 146.857 17.8221 146.723 17.3769C146.592 16.9409 146.205 16.6308 145.771 16.5234C145.497 16.4559 145.201 16.462 144.93 16.548C144.862 16.5694 144.795 16.594 144.731 16.6247C144.698 16.6401 144.667 16.6554 144.637 16.6738L144.582 16.7045L144.539 16.7322C144.435 16.7997 144.329 16.8857 144.237 16.9808C144.051 17.1712 143.908 17.4015 143.819 17.6501C143.639 18.1506 143.685 18.7247 143.956 19.1913C144.21 19.6304 144.615 19.9589 145.082 20.1246C145.549 20.2904 146.07 20.2904 146.537 20.1154C146.653 20.0725 146.766 20.0203 146.873 19.9558C146.9 19.9404 146.925 19.9251 146.955 19.9067L146.992 19.8821L147.028 19.8575C147.077 19.8238 147.123 19.79 147.169 19.7532C147.352 19.6058 147.513 19.4308 147.648 19.2374C147.919 18.8505 148.078 18.39 148.105 17.9203C148.136 17.4506 148.032 16.9686 147.806 16.5541C147.69 16.3392 147.559 16.1642 147.41 15.9953C147.26 15.8295 147.089 15.6791 146.906 15.5502C146.174 15.0282 145.207 14.8625 144.344 15.1111C144.127 15.1725 143.92 15.2585 143.722 15.366C143.673 15.3936 143.624 15.4212 143.575 15.4489L143.499 15.498L143.435 15.541C143.346 15.6024 143.261 15.6668 143.179 15.7374C142.849 16.0138 142.565 16.3515 142.349 16.7291C141.916 17.4813 141.763 18.39 141.925 19.2435C142.004 19.6703 142.16 20.0847 142.386 20.4593C142.41 20.5023 142.45 20.5606 142.474 20.6005L142.517 20.665L142.562 20.7295C142.623 20.8154 142.688 20.8983 142.755 20.9781C142.889 21.1409 143.035 21.2913 143.191 21.4325C143.813 22.0005 144.6 22.3812 145.427 22.5193C146.253 22.6606 147.123 22.5623 147.898 22.2277C148.09 22.1448 148.279 22.0496 148.459 21.9391C148.502 21.9145 148.554 21.8808 148.599 21.8501L148.657 21.8132L148.694 21.7887L148.724 21.7672C148.807 21.7088 148.889 21.6474 148.971 21.583C149.292 21.3281 149.585 21.0365 149.841 20.7141C150.353 20.0725 150.716 19.308 150.896 18.5036C151.079 17.6993 151.076 16.8519 150.887 16.0475L150.857 16.0567Z" fill="black"/>
</g>
<defs>
<clipPath id="clip0_91_1613">
<rect width="151" height="25" fill="white"/>
</clipPath>
</defs>
</svg>
